<svg xmlns="http://www.w3.org/2000/svg" viewBox="0 0 476 476" width="476" height="476" role="img" aria-label="Blender icon">
  <rect width="476" height="476" fill="#E87D0D"/>
  <path fill="#FFFFFF" fill-rule="evenodd" d="M 237 63 L 236 64 L 234 64 L 233 65 L 231 65 L 230 66 L 229 66 L 228 67 L 227 68 L 226 68 L 225 69 L 224 70 L 223 71 L 222 72 L 221 73 L 221 74 L 220 75 L 220 76 L 219 77 L 219 86 L 220 87 L 220 88 L 221 89 L 222 90 L 222 91 L 223 92 L 224 93 L 225 94 L 226 94 L 227 95 L 228 96 L 229 96 L 230 97 L 233 97 L 234 98 L 242 98 L 243 97 L 246 97 L 247 96 L 248 96 L 249 95 L 250 95 L 251 94 L 252 93 L 253 92 L 254 91 L 254 90 L 255 89 L 256 88 L 256 86 L 257 85 L 257 76 L 256 75 L 256 73 L 255 72 L 254 71 L 254 70 L 253 69 L 252 68 L 251 68 L 250 67 L 249 66 L 248 66 L 247 65 L 245 65 L 244 64 L 242 64 L 241 63 L 237 63 Z"/>
  <path fill="#FFFFFF" fill-rule="evenodd" d="M 236 112 L 235 113 L 233 113 L 232 114 L 231 114 L 230 115 L 229 116 L 228 116 L 227 117 L 226 118 L 225 119 L 224 120 L 224 121 L 223 122 L 222 123 L 222 125 L 221 126 L 221 133 L 222 134 L 222 136 L 223 137 L 224 138 L 224 139 L 225 140 L 226 141 L 227 142 L 228 143 L 229 143 L 230 144 L 231 145 L 233 145 L 234 146 L 241 146 L 242 145 L 244 145 L 245 144 L 246 144 L 247 143 L 248 142 L 249 142 L 250 141 L 251 140 L 252 139 L 252 138 L 253 137 L 254 136 L 254 134 L 255 133 L 255 126 L 254 125 L 254 123 L 253 122 L 252 121 L 252 120 L 251 119 L 250 118 L 249 117 L 248 116 L 247 116 L 246 115 L 245 114 L 243 114 L 242 113 L 240 113 L 239 112 L 236 112 Z"/>
  <path fill="#FFFFFF" fill-rule="evenodd" d="M 238 161 L 237 162 L 234 162 L 233 163 L 231 163 L 230 164 L 229 164 L 228 165 L 227 165 L 226 166 L 225 167 L 224 167 L 223 168 L 222 169 L 221 170 L 220 171 L 220 172 L 219 173 L 218 174 L 218 175 L 217 176 L 217 178 L 216 179 L 216 186 L 217 187 L 217 189 L 218 190 L 218 191 L 219 192 L 220 193 L 220 194 L 221 195 L 222 196 L 223 197 L 224 198 L 225 198 L 226 199 L 227 200 L 229 200 L 230 201 L 232 201 L 233 202 L 241 202 L 242 201 L 245 201 L 246 200 L 248 200 L 249 199 L 250 199 L 251 198 L 252 197 L 253 197 L 254 196 L 255 195 L 256 194 L 257 193 L 257 192 L 258 191 L 259 190 L 259 188 L 260 187 L 260 178 L 259 177 L 259 175 L 258 174 L 258 173 L 257 172 L 256 171 L 256 170 L 255 169 L 254 168 L 253 167 L 252 166 L 251 166 L 250 165 L 249 164 L 247 164 L 246 163 L 244 163 L 243 162 L 240 162 L 239 161 L 238 161 Z"/>
  <path fill="#FFFFFF" fill-rule="evenodd" d="M 179 197 L 178 198 L 175 198 L 174 199 L 171 199 L 170 200 L 168 200 L 167 201 L 165 201 L 164 202 L 162 202 L 161 203 L 159 203 L 158 204 L 156 204 L 155 205 L 154 205 L 153 206 L 151 206 L 150 207 L 149 207 L 148 208 L 147 208 L 146 209 L 144 209 L 143 210 L 142 210 L 141 211 L 140 211 L 139 212 L 138 212 L 137 213 L 136 213 L 135 214 L 134 214 L 133 215 L 132 215 L 131 216 L 130 216 L 129 217 L 128 217 L 127 218 L 126 218 L 125 219 L 124 220 L 123 220 L 122 221 L 121 221 L 120 222 L 119 223 L 118 223 L 117 224 L 116 225 L 115 225 L 114 226 L 113 227 L 112 228 L 111 229 L 110 230 L 109 231 L 108 232 L 107 233 L 106 234 L 105 235 L 104 236 L 103 237 L 102 238 L 101 239 L 100 240 L 99 241 L 99 242 L 98 243 L 97 244 L 97 245 L 96 246 L 95 247 L 95 248 L 94 249 L 94 251 L 93 252 L 93 254 L 92 255 L 92 258 L 91 259 L 91 267 L 92 268 L 92 271 L 93 272 L 93 274 L 94 275 L 94 277 L 95 278 L 95 279 L 96 280 L 97 281 L 97 282 L 98 283 L 99 284 L 99 285 L 100 286 L 101 287 L 102 288 L 103 289 L 104 290 L 105 291 L 106 292 L 107 293 L 108 294 L 109 295 L 110 296 L 111 297 L 112 298 L 113 299 L 114 300 L 115 301 L 116 302 L 117 303 L 118 304 L 119 305 L 120 306 L 121 307 L 122 308 L 123 309 L 124 310 L 125 311 L 126 312 L 127 313 L 128 314 L 129 315 L 130 316 L 131 317 L 132 318 L 133 319 L 134 320 L 135 321 L 136 322 L 137 323 L 138 324 L 139 325 L 140 326 L 141 327 L 142 328 L 143 329 L 144 330 L 145 331 L 146 331 L 147 332 L 148 333 L 149 333 L 150 334 L 151 334 L 152 335 L 153 335 L 154 336 L 156 336 L 157 337 L 159 337 L 160 338 L 163 338 L 164 339 L 168 339 L 169 340 L 181 340 L 182 339 L 186 339 L 187 338 L 190 338 L 191 337 L 193 337 L 194 336 L 196 336 L 197 335 L 199 335 L 200 334 L 201 334 L 202 333 L 204 333 L 205 332 L 206 332 L 207 331 L 208 331 L 209 330 L 211 330 L 212 329 L 213 329 L 214 328 L 215 328 L 216 327 L 217 327 L 218 326 L 219 326 L 220 325 L 221 325 L 222 324 L 223 324 L 224 323 L 225 323 L 226 322 L 227 322 L 228 321 L 229 321 L 230 320 L 231 320 L 232 319 L 233 319 L 234 318 L 235 318 L 236 317 L 237 317 L 238 316 L 239 316 L 240 315 L 241 315 L 242 314 L 243 314 L 244 313 L 245 313 L 246 312 L 247 312 L 248 311 L 249 311 L 250 310 L 251 310 L 252 309 L 253 309 L 254 308 L 255 308 L 256 307 L 257 307 L 258 306 L 259 306 L 260 305 L 261 305 L 262 304 L 263 304 L 264 303 L 265 303 L 266 302 L 267 302 L 268 301 L 269 301 L 270 300 L 271 300 L 272 299 L 273 299 L 274 298 L 275 298 L 276 297 L 277 297 L 278 296 L 279 296 L 280 295 L 281 295 L 282 294 L 283 294 L 284 293 L 285 293 L 286 292 L 287 292 L 288 291 L 289 291 L 290 290 L 291 290 L 292 289 L 293 289 L 294 288 L 295 288 L 296 287 L 297 287 L 298 286 L 299 286 L 300 285 L 301 285 L 302 284 L 303 284 L 304 283 L 305 283 L 306 282 L 307 282 L 308 281 L 309 281 L 310 280 L 311 280 L 312 279 L 313 279 L 314 278 L 315 278 L 316 277 L 317 277 L 318 276 L 319 276 L 320 275 L 321 275 L 322 274 L 323 274 L 324 273 L 325 273 L 326 272 L 327 272 L 328 271 L 329 271 L 330 270 L 331 270 L 332 269 L 333 269 L 334 268 L 335 268 L 336 267 L 337 267 L 338 266 L 339 266 L 340 265 L 341 265 L 342 264 L 343 264 L 344 263 L 345 263 L 346 262 L 347 262 L 348 261 L 349 261 L 350 260 L 351 260 L 352 259 L 353 259 L 354 258 L 355 258 L 356 257 L 357 257 L 358 256 L 359 256 L 360 255 L 361 255 L 362 254 L 363 254 L 364 253 L 365 253 L 366 252 L 367 252 L 368 251 L 369 251 L 370 250 L 371 250 L 372 249 L 373 249 L 374 248 L 375 248 L 376 247 L 377 247 L 378 246 L 379 246 L 380 245 L 381 245 L 382 244 L 383 244 L 384 243 L 385 243 L 386 242 L 387 242 L 388 241 L 389 241 L 390 240 L 391 240 L 392 239 L 393 239 L 394 238 L 395 238 L 396 237 L 397 237 L 398 236 L 399 236 L 400 235 L 401 235 L 402 234 L 403 234 L 404 233 L 405 233 L 406 232 L 407 232 L 408 231 L 409 231 L 410 230 L 411 230 L 412 229 L 413 229 L 414 228 L 415 228 L 416 227 L 417 227 L 418 226 L 419 226 L 420 225 L 421 225 L 422 224 L 423 224 L 424 223 L 425 223 L 426 222 L 427 222 L 428 221 L 429 221 L 430 220 L 431 220 L 432 219 L 433 219 L 434 218 L 435 218 L 436 217 L 437 217 L 438 216 L 439 216 L 440 215 L 441 215 L 442 214 L 443 214 L 444 213 L 445 213 L 446 212 L 447 212 L 448 211 L 449 211 L 450 210 L 451 210 L 452 209 L 453 209 L 454 208 L 455 208 L 456 207 L 457 207 L 458 206 L 459 206 L 460 205 L 461 205 L 462 204 L 463 204 L 464 203 L 465 203 L 466 202 L 467 202 L 468 201 L 469 201 L 470 200 L 471 200 L 472 199 L 473 199 L 474 198 L 475 198 L 476 197 L 476 476 L 0 476 L 0 197 L 179 197 Z" opacity="0.001"/>
  <path fill="#FFFFFF" fill-rule="evenodd" d="M 239 236 L 238 237 L 236 237 L 235 238 L 233 238 L 232 239 L 230 239 L 229 240 L 227 240 L 226 241 L 225 241 L 224 242 L 222 242 L 221 243 L 220 243 L 219 244 L 218 244 L 217 245 L 216 245 L 215 246 L 214 246 L 213 247 L 212 247 L 211 248 L 210 249 L 209 249 L 208 250 L 207 250 L 206 251 L 205 252 L 204 252 L 203 253 L 202 254 L 201 255 L 200 256 L 199 257 L 198 258 L 197 259 L 196 260 L 195 261 L 194 262 L 194 263 L 193 264 L 192 265 L 192 266 L 191 267 L 191 269 L 190 270 L 190 273 L 189 274 L 189 281 L 190 282 L 190 286 L 191 287 L 191 289 L 192 290 L 192 292 L 193 293 L 193 294 L 194 295 L 194 296 L 195 297 L 196 298 L 196 299 L 197 300 L 198 301 L 199 302 L 200 303 L 201 304 L 202 305 L 203 306 L 204 307 L 205 308 L 206 309 L 207 310 L 208 311 L 209 312 L 210 313 L 211 314 L 212 315 L 213 316 L 214 317 L 215 318 L 216 319 L 217 320 L 218 320 L 219 321 L 220 322 L 221 322 L 222 323 L 224 323 L 225 324 L 227 324 L 228 325 L 231 325 L 232 326 L 243 326 L 244 325 L 247 325 L 248 324 L 250 324 L 251 323 L 253 323 L 254 322 L 255 322 L 256 321 L 257 321 L 258 320 L 259 319 L 260 319 L 261 318 L 262 317 L 263 316 L 264 315 L 265 314 L 266 313 L 267 312 L 268 311 L 269 310 L 270 309 L 271 308 L 272 307 L 273 306 L 274 305 L 275 304 L 276 303 L 277 302 L 278 301 L 279 300 L 280 299 L 280 298 L 281 297 L 282 296 L 282 295 L 283 294 L 283 293 L 284 292 L 284 290 L 285 289 L 285 286 L 286 285 L 286 273 L 285 272 L 285 269 L 284 268 L 284 266 L 283 265 L 283 264 L 282 263 L 281 262 L 281 261 L 280 260 L 279 259 L 278 258 L 277 257 L 276 256 L 275 255 L 274 254 L 273 253 L 272 252 L 271 251 L 270 250 L 269 249 L 268 248 L 267 247 L 266 246 L 265 246 L 264 245 L 263 244 L 262 244 L 261 243 L 260 243 L 259 242 L 257 242 L 256 241 L 255 241 L 254 240 L 252 240 L 251 239 L 249 239 L 248 238 L 246 238 L 245 237 L 242 237 L 241 236 L 239 236 Z"/>
  <path fill="#E87D0D" fill-rule="evenodd" d="M 238 257 L 237 258 L 234 258 L 233 259 L 231 259 L 230 260 L 229 260 L 228 261 L 226 261 L 225 262 L 224 262 L 223 263 L 222 263 L 221 264 L 220 265 L 219 266 L 218 267 L 217 268 L 216 269 L 215 270 L 214 271 L 214 272 L 213 273 L 212 274 L 212 276 L 211 277 L 211 283 L 212 284 L 212 286 L 213 287 L 213 288 L 214 289 L 214 290 L 215 291 L 216 292 L 217 293 L 218 294 L 219 295 L 220 296 L 221 297 L 222 298 L 223 299 L 224 300 L 226 300 L 227 301 L 229 301 L 230 302 L 233 302 L 234 303 L 242 303 L 243 302 L 246 302 L 247 301 L 249 301 L 250 300 L 251 300 L 252 299 L 254 299 L 255 298 L 256 297 L 257 296 L 258 295 L 259 294 L 260 293 L 261 292 L 262 291 L 263 290 L 263 289 L 264 288 L 264 286 L 265 285 L 265 277 L 264 276 L 264 274 L 263 273 L 263 272 L 262 271 L 261 270 L 260 269 L 259 268 L 258 267 L 257 266 L 256 265 L 255 264 L 254 263 L 253 263 L 252 262 L 251 262 L 250 261 L 248 261 L 247 260 L 246 260 L 245 259 L 242 259 L 241 258 L 239 258 L 238 257 Z"/>
</svg>
