<svg xmlns="http://www.w3.org/2000/svg" viewBox="0 0 476 476" width="476" height="476" role="img" aria-label="Blender icon">
  <rect width="476" height="476" fill="#E87D0D"/>
  <path fill="#FFFFFF" fill-rule="evenodd" d="M 237 63 L 236 64 L 234 64 L 233 65 L 231 65 L 230 66 L 229 66 L 228 67 L 227 68 L 226 68 L 225 69 L 224 70 L 223 71 L 222 72 L 221 73 L 221 74 L 220 75 L 220 76 L 219 77 L 219 86 L 220 87 L 220 88 L 221 89 L 222 90 L 222 91 L 223 92 L 224 93 L 225 94 L 226 94 L 227 95 L 228 96 L 229 97 L 230 98 L 231 98 L 232 99 L 233 100 L 234 101 L 235 102 L 236 102 L 237 103 L 238 104 L 239 105 L 240 106 L 241 107 L 242 107 L 243 108 L 244 109 L 245 110 L 246 111 L 247 111 L 248 112 L 249 113 L 250 114 L 251 115 L 252 115 L 253 116 L 254 117 L 255 118 L 256 119 L 257 120 L 258 120 L 259 121 L 260 122 L 261 123 L 262 124 L 263 124 L 264 125 L 265 126 L 266 127 L 267 128 L 268 129 L 269 129 L 270 130 L 271 131 L 272 132 L 273 133 L 274 133 L 275 134 L 276 135 L 277 136 L 278 137 L 279 137 L 280 138 L 281 139 L 282 140 L 283 141 L 283 142 L 282 143 L 97 143 L 96 144 L 93 144 L 92 145 L 90 145 L 89 146 L 88 146 L 87 147 L 86 147 L 85 148 L 84 148 L 83 149 L 82 150 L 81 150 L 80 151 L 79 152 L 78 153 L 77 154 L 76 155 L 76 156 L 75 157 L 74 158 L 74 159 L 73 160 L 73 161 L 72 162 L 72 166 L 71 167 L 71 169 L 72 170 L 72 173 L 73 174 L 73 176 L 74 177 L 75 178 L 76 179 L 76 180 L 77 180 L 78 181 L 79 182 L 80 183 L 81 183 L 82 184 L 84 184 L 85 185 L 88 185 L 89 186 L 184 186 L 185 187 L 184 188 L 183 189 L 182 190 L 181 191 L 180 191 L 179 192 L 178 193 L 177 194 L 176 195 L 175 195 L 174 196 L 173 197 L 172 198 L 171 198 L 170 199 L 169 200 L 168 201 L 167 201 L 166 202 L 165 203 L 164 204 L 163 205 L 162 205 L 161 206 L 160 207 L 159 208 L 158 208 L 157 209 L 156 210 L 155 211 L 154 211 L 153 212 L 152 213 L 151 214 L 150 215 L 149 215 L 148 216 L 147 217 L 146 218 L 145 218 L 144 219 L 143 220 L 142 221 L 141 221 L 140 222 L 139 223 L 138 224 L 137 224 L 136 225 L 135 226 L 134 227 L 133 228 L 132 228 L 131 229 L 130 230 L 129 231 L 128 231 L 127 232 L 126 233 L 125 234 L 124 234 L 123 235 L 122 236 L 121 237 L 120 238 L 119 238 L 118 239 L 117 240 L 116 241 L 115 241 L 114 242 L 113 243 L 112 244 L 111 244 L 110 245 L 109 246 L 108 247 L 107 248 L 106 248 L 105 249 L 104 250 L 103 251 L 102 251 L 101 252 L 100 253 L 99 254 L 98 254 L 97 255 L 96 256 L 95 257 L 94 258 L 93 258 L 92 259 L 91 260 L 90 261 L 89 261 L 88 262 L 87 263 L 86 264 L 85 264 L 84 265 L 83 266 L 82 267 L 81 267 L 80 268 L 79 269 L 78 270 L 77 271 L 76 271 L 75 272 L 74 273 L 73 274 L 72 274 L 71 275 L 70 276 L 69 277 L 68 277 L 67 278 L 66 279 L 65 280 L 64 281 L 63 281 L 62 282 L 61 283 L 60 284 L 59 284 L 58 285 L 57 286 L 56 287 L 55 287 L 54 288 L 53 289 L 52 290 L 51 291 L 50 291 L 49 292 L 48 293 L 47 294 L 46 294 L 45 295 L 44 296 L 43 297 L 42 297 L 41 298 L 40 299 L 39 300 L 38 301 L 37 301 L 36 302 L 35 303 L 34 304 L 33 304 L 32 305 L 31 306 L 30 307 L 29 307 L 28 308 L 27 309 L 26 310 L 25 311 L 24 311 L 23 312 L 22 313 L 21 314 L 20 314 L 19 315 L 18 316 L 17 317 L 16 318 L 15 319 L 15 320 L 14 321 L 13 322 L 13 323 L 12 324 L 11 325 L 11 326 L 10 327 L 10 328 L 9 329 L 9 331 L 8 332 L 8 335 L 7 336 L 7 346 L 8 347 L 8 349 L 9 350 L 9 351 L 10 352 L 10 353 L 11 354 L 11 355 L 12 356 L 13 357 L 14 358 L 15 359 L 16 359 L 17 360 L 18 361 L 19 361 L 20 362 L 22 362 L 23 363 L 25 363 L 26 364 L 38 364 L 39 363 L 42 363 L 43 362 L 45 362 L 46 361 L 47 361 L 48 360 L 49 360 L 50 359 L 51 359 L 52 358 L 53 358 L 54 357 L 55 356 L 56 355 L 57 355 L 58 354 L 59 353 L 60 352 L 61 351 L 62 351 L 63 350 L 64 349 L 65 348 L 66 347 L 67 346 L 68 346 L 69 345 L 70 344 L 71 343 L 72 342 L 73 342 L 74 341 L 75 340 L 76 339 L 77 338 L 78 337 L 79 337 L 80 336 L 81 335 L 82 334 L 83 333 L 84 333 L 85 332 L 86 331 L 87 330 L 88 329 L 89 328 L 90 328 L 91 327 L 92 326 L 93 325 L 94 324 L 95 323 L 96 323 L 97 322 L 98 321 L 99 320 L 100 319 L 101 319 L 102 318 L 103 317 L 104 316 L 105 315 L 106 314 L 107 314 L 108 313 L 109 312 L 110 311 L 111 310 L 112 310 L 113 309 L 114 308 L 115 307 L 116 306 L 117 305 L 118 305 L 119 304 L 120 303 L 121 302 L 122 301 L 123 301 L 124 300 L 125 299 L 126 298 L 127 297 L 128 296 L 129 296 L 130 295 L 131 294 L 132 293 L 133 292 L 134 292 L 135 291 L 136 290 L 137 289 L 138 288 L 139 287 L 140 287 L 141 286 L 142 285 L 143 284 L 144 283 L 146 283 L 147 284 L 146 285 L 146 296 L 145 297 L 145 299 L 146 300 L 146 308 L 147 309 L 147 314 L 148 315 L 148 318 L 149 319 L 149 322 L 150 323 L 150 325 L 151 326 L 151 328 L 152 329 L 152 331 L 153 332 L 153 334 L 154 335 L 154 336 L 155 337 L 155 339 L 156 340 L 156 341 L 157 342 L 157 343 L 158 344 L 158 345 L 159 346 L 159 347 L 160 348 L 160 349 L 161 350 L 162 351 L 162 352 L 163 353 L 163 354 L 164 355 L 164 356 L 165 357 L 166 358 L 166 359 L 167 360 L 168 361 L 168 362 L 169 363 L 170 364 L 171 365 L 171 366 L 172 367 L 173 368 L 174 369 L 174 370 L 175 371 L 176 372 L 177 373 L 178 374 L 179 375 L 179 376 L 180 377 L 181 378 L 182 379 L 183 380 L 184 381 L 185 382 L 186 383 L 187 384 L 188 385 L 189 386 L 190 387 L 191 388 L 192 388 L 193 389 L 194 390 L 195 391 L 196 392 L 197 393 L 198 393 L 199 394 L 200 395 L 201 396 L 202 397 L 203 397 L 204 398 L 205 399 L 206 399 L 207 400 L 208 401 L 209 401 L 210 402 L 211 403 L 212 403 L 213 404 L 214 405 L 215 405 L 216 406 L 217 406 L 218 407 L 219 407 L 220 408 L 221 409 L 222 409 L 223 410 L 224 410 L 225 411 L 226 411 L 227 412 L 228 412 L 229 413 L 231 413 L 232 414 L 233 414 L 234 415 L 235 415 L 236 416 L 238 416 L 239 417 L 240 417 L 241 418 L 243 418 L 244 419 L 246 419 L 247 420 L 249 420 L 250 421 L 252 421 L 253 422 L 256 422 L 257 423 L 260 423 L 261 424 L 264 424 L 265 425 L 269 425 L 270 426 L 275 426 L 276 427 L 283 427 L 284 428 L 316 428 L 317 427 L 325 427 L 326 426 L 331 426 L 332 425 L 336 425 L 337 424 L 340 424 L 341 423 L 344 423 L 345 422 L 348 422 L 349 421 L 351 421 L 352 420 L 354 420 L 355 419 L 357 419 L 358 418 L 360 418 L 361 417 L 362 417 L 363 416 L 365 416 L 366 415 L 367 415 L 368 414 L 370 414 L 371 413 L 372 413 L 373 412 L 374 412 L 375 411 L 376 411 L 377 410 L 378 410 L 379 409 L 380 409 L 381 408 L 382 407 L 383 407 L 384 406 L 385 406 L 386 405 L 387 405 L 388 404 L 389 403 L 390 403 L 391 402 L 392 401 L 393 401 L 394 400 L 395 399 L 396 399 L 397 398 L 398 397 L 399 397 L 400 396 L 401 395 L 402 394 L 403 394 L 404 393 L 405 392 L 406 391 L 407 390 L 408 389 L 409 389 L 410 388 L 411 387 L 412 386 L 413 385 L 414 384 L 415 383 L 416 382 L 417 381 L 418 380 L 419 379 L 420 378 L 421 377 L 422 376 L 423 375 L 423 374 L 424 373 L 425 372 L 426 371 L 427 370 L 428 369 L 428 368 L 429 367 L 430 366 L 431 365 L 431 364 L 432 363 L 433 362 L 433 361 L 434 360 L 435 359 L 436 358 L 436 357 L 437 356 L 437 355 L 438 354 L 439 353 L 439 352 L 440 351 L 440 350 L 441 349 L 441 348 L 442 347 L 442 346 L 443 345 L 443 344 L 444 343 L 444 342 L 445 341 L 445 340 L 446 339 L 446 338 L 447 337 L 447 335 L 448 334 L 448 333 L 449 332 L 449 330 L 450 329 L 450 327 L 451 326 L 451 324 L 452 323 L 452 321 L 453 320 L 453 317 L 454 316 L 454 313 L 455 312 L 455 307 L 456 306 L 456 300 L 457 299 L 457 272 L 456 271 L 456 264 L 455 263 L 455 259 L 454 258 L 454 254 L 453 253 L 453 251 L 452 250 L 452 247 L 451 246 L 451 244 L 450 243 L 450 241 L 449 240 L 449 238 L 448 237 L 448 236 L 447 235 L 447 233 L 446 232 L 446 231 L 445 230 L 445 229 L 444 228 L 444 227 L 443 226 L 443 225 L 442 224 L 442 223 L 441 222 L 441 221 L 440 220 L 439 219 L 439 218 L 438 217 L 438 216 L 437 215 L 437 214 L 436 213 L 435 212 L 435 211 L 434 210 L 433 209 L 433 208 L 432 207 L 431 206 L 430 205 L 430 204 L 429 203 L 428 202 L 427 201 L 426 200 L 426 199 L 425 198 L 424 197 L 423 196 L 422 195 L 421 194 L 420 193 L 419 192 L 419 191 L 418 190 L 417 189 L 416 188 L 415 187 L 414 187 L 413 186 L 412 185 L 411 184 L 410 183 L 409 182 L 408 181 L 407 180 L 406 179 L 405 179 L 404 178 L 403 177 L 402 176 L 401 175 L 400 175 L 399 174 L 398 173 L 397 172 L 396 172 L 395 171 L 394 170 L 393 169 L 392 169 L 391 168 L 390 167 L 389 166 L 388 165 L 387 165 L 386 164 L 385 163 L 384 162 L 383 162 L 382 161 L 381 160 L 380 159 L 379 159 L 378 158 L 377 157 L 376 156 L 375 155 L 374 155 L 373 154 L 372 153 L 371 152 L 370 152 L 369 151 L 368 150 L 367 149 L 366 149 L 365 148 L 364 147 L 363 146 L 362 145 L 361 145 L 360 144 L 359 143 L 358 142 L 357 142 L 356 141 L 355 140 L 354 139 L 353 139 L 352 138 L 351 137 L 350 136 L 349 135 L 348 135 L 347 134 L 346 133 L 345 132 L 344 132 L 343 131 L 342 130 L 341 129 L 340 129 L 339 128 L 338 127 L 337 126 L 336 125 L 335 125 L 334 124 L 333 123 L 332 122 L 331 122 L 330 121 L 329 120 L 328 119 L 327 119 L 326 118 L 325 117 L 324 116 L 323 116 L 322 115 L 321 114 L 320 113 L 319 112 L 318 112 L 317 111 L 316 110 L 315 109 L 314 109 L 313 108 L 312 107 L 311 106 L 310 106 L 309 105 L 308 104 L 307 103 L 306 102 L 305 102 L 304 101 L 303 100 L 302 99 L 301 99 L 300 98 L 299 97 L 298 96 L 297 96 L 296 95 L 295 94 L 294 93 L 293 92 L 292 92 L 291 91 L 290 90 L 289 89 L 288 89 L 287 88 L 286 87 L 285 86 L 284 86 L 283 85 L 282 84 L 281 83 L 280 82 L 279 82 L 278 81 L 277 80 L 276 79 L 275 79 L 274 78 L 273 77 L 272 76 L 271 76 L 270 75 L 269 74 L 268 73 L 267 72 L 266 72 L 265 71 L 264 70 L 263 69 L 262 69 L 261 68 L 260 67 L 259 67 L 258 66 L 257 65 L 255 65 L 254 64 L 252 64 L 251 63 Z M 288 187 L 289 186 L 313 186 L 314 187 L 319 187 L 320 188 L 324 188 L 325 189 L 328 189 L 329 190 L 332 190 L 333 191 L 335 191 L 336 192 L 338 192 L 339 193 L 340 193 L 341 194 L 342 194 L 343 195 L 345 195 L 346 196 L 347 196 L 348 197 L 349 197 L 350 198 L 351 199 L 352 199 L 353 200 L 354 200 L 355 201 L 356 201 L 357 202 L 358 203 L 359 203 L 360 204 L 361 205 L 362 206 L 363 206 L 364 207 L 365 208 L 366 209 L 367 210 L 368 210 L 369 211 L 370 212 L 371 213 L 372 214 L 373 215 L 374 216 L 375 217 L 376 218 L 377 219 L 377 220 L 378 221 L 379 222 L 380 223 L 381 224 L 381 225 L 382 226 L 383 227 L 383 228 L 384 229 L 385 230 L 385 231 L 386 232 L 387 233 L 387 234 L 388 235 L 388 236 L 389 237 L 389 238 L 390 239 L 390 240 L 391 241 L 391 242 L 392 243 L 392 245 L 393 246 L 393 248 L 394 249 L 394 251 L 395 252 L 395 255 L 396 256 L 396 260 L 397 261 L 397 270 L 398 271 L 398 277 L 397 278 L 397 286 L 396 287 L 396 291 L 395 292 L 395 295 L 394 296 L 394 299 L 393 300 L 393 301 L 392 302 L 392 304 L 391 305 L 391 306 L 390 307 L 390 308 L 389 309 L 389 310 L 388 311 L 388 312 L 387 313 L 387 314 L 386 315 L 386 316 L 385 317 L 384 318 L 384 319 L 383 320 L 382 321 L 382 322 L 381 323 L 380 324 L 379 325 L 379 326 L 378 327 L 377 328 L 376 329 L 375 330 L 374 331 L 373 332 L 372 333 L 371 334 L 370 335 L 369 336 L 368 337 L 367 338 L 366 339 L 365 339 L 364 340 L 363 341 L 362 342 L 361 343 L 360 343 L 359 344 L 358 345 L 357 345 L 356 346 L 355 347 L 354 347 L 353 348 L 352 348 L 351 349 L 350 350 L 349 350 L 348 351 L 347 351 L 346 352 L 345 352 L 344 353 L 342 353 L 341 354 L 340 354 L 339 355 L 337 355 L 336 356 L 334 356 L 333 357 L 331 357 L 330 358 L 328 358 L 327 359 L 323 359 L 322 360 L 318 360 L 317 361 L 309 361 L 308 362 L 293 362 L 292 361 L 284 361 L 283 360 L 279 360 L 278 359 L 275 359 L 274 358 L 271 358 L 270 357 L 268 357 L 267 356 L 265 356 L 264 355 L 262 355 L 261 354 L 260 354 L 259 353 L 258 353 L 257 352 L 256 352 L 255 351 L 254 351 L 253 350 L 252 350 L 251 349 L 250 349 L 249 348 L 248 348 L 247 347 L 246 346 L 245 346 L 244 345 L 243 345 L 242 344 L 241 343 L 240 342 L 239 342 L 238 341 L 237 340 L 236 339 L 235 338 L 234 338 L 233 337 L 232 336 L 231 335 L 230 334 L 229 333 L 228 332 L 227 331 L 226 330 L 225 329 L 224 328 L 224 327 L 223 326 L 222 325 L 221 324 L 220 323 L 220 322 L 219 321 L 218 320 L 218 319 L 217 318 L 216 317 L 216 316 L 215 315 L 215 314 L 214 313 L 213 312 L 213 311 L 212 310 L 212 308 L 211 307 L 211 306 L 210 305 L 210 304 L 209 303 L 209 301 L 208 300 L 208 298 L 207 297 L 207 295 L 206 294 L 206 290 L 205 289 L 205 284 L 204 283 L 204 266 L 205 265 L 205 259 L 206 258 L 206 254 L 207 253 L 207 251 L 208 250 L 208 248 L 209 247 L 209 245 L 210 244 L 210 243 L 211 242 L 211 240 L 212 239 L 212 238 L 213 237 L 213 236 L 214 235 L 214 234 L 215 233 L 216 232 L 216 231 L 217 230 L 218 229 L 218 228 L 219 227 L 220 226 L 220 225 L 221 224 L 222 223 L 223 222 L 223 221 L 224 220 L 225 219 L 226 218 L 227 217 L 228 216 L 229 215 L 230 214 L 231 213 L 232 212 L 233 211 L 234 210 L 235 209 L 236 209 L 237 208 L 238 207 L 239 206 L 240 205 L 241 205 L 242 204 L 243 203 L 244 203 L 245 202 L 246 201 L 247 201 L 248 200 L 249 200 L 250 199 L 251 198 L 252 198 L 253 197 L 254 197 L 255 196 L 256 196 L 257 195 L 258 195 L 259 194 L 261 194 L 262 193 L 263 193 L 264 192 L 266 192 L 267 191 L 269 191 L 270 190 L 273 190 L 274 189 L 277 189 L 278 188 L 281 188 L 282 187 Z M 292 217 L 291 218 L 287 218 L 286 219 L 284 219 L 283 220 L 281 220 L 280 221 L 278 221 L 277 222 L 276 222 L 275 223 L 274 223 L 273 224 L 272 224 L 271 225 L 270 225 L 269 226 L 268 227 L 267 227 L 266 228 L 265 229 L 264 229 L 263 230 L 262 231 L 261 232 L 260 233 L 259 234 L 258 235 L 257 236 L 256 237 L 255 238 L 254 239 L 253 240 L 253 241 L 252 242 L 251 243 L 251 244 L 250 245 L 249 246 L 249 247 L 248 248 L 248 249 L 247 250 L 247 251 L 246 252 L 246 254 L 245 255 L 245 257 L 244 258 L 244 261 L 243 262 L 243 280 L 244 281 L 244 284 L 245 285 L 245 287 L 246 288 L 246 290 L 247 291 L 247 292 L 248 293 L 248 294 L 249 295 L 249 296 L 250 297 L 250 298 L 251 299 L 252 300 L 252 301 L 253 302 L 254 303 L 255 304 L 256 305 L 257 306 L 257 307 L 258 308 L 259 309 L 260 309 L 261 310 L 262 311 L 263 312 L 264 313 L 265 314 L 266 314 L 267 315 L 268 316 L 269 316 L 270 317 L 271 317 L 272 318 L 273 319 L 275 319 L 276 320 L 277 320 L 278 321 L 279 321 L 280 322 L 282 322 L 283 323 L 286 323 L 287 324 L 290 324 L 291 325 L 298 325 L 299 326 L 306 326 L 307 325 L 315 325 L 316 324 L 319 324 L 320 323 L 322 323 L 323 322 L 325 322 L 326 321 L 328 321 L 329 320 L 330 320 L 331 319 L 332 319 L 333 318 L 334 318 L 335 317 L 336 317 L 337 316 L 338 315 L 339 315 L 340 314 L 341 313 L 342 313 L 343 312 L 344 311 L 345 310 L 346 309 L 347 308 L 348 307 L 349 306 L 350 305 L 351 304 L 352 303 L 352 302 L 353 301 L 354 300 L 355 299 L 355 298 L 356 297 L 356 296 L 357 295 L 357 294 L 358 293 L 358 292 L 359 291 L 359 290 L 360 289 L 360 287 L 361 286 L 361 284 L 362 283 L 362 279 L 363 278 L 363 265 L 362 264 L 362 260 L 361 259 L 361 256 L 360 255 L 360 253 L 359 252 L 359 251 L 358 250 L 358 249 L 357 248 L 357 247 L 356 246 L 356 245 L 355 244 L 354 243 L 354 242 L 353 241 L 352 240 L 352 239 L 351 238 L 350 237 L 349 236 L 348 235 L 347 234 L 346 233 L 345 232 L 344 231 L 343 230 L 342 230 L 341 229 L 340 228 L 339 228 L 338 227 L 337 226 L 336 226 L 335 225 L 334 224 L 333 224 L 332 223 L 331 223 L 330 222 L 328 222 L 327 221 L 326 221 L 325 220 L 323 220 L 322 219 L 319 219 L 318 218 L 314 218 L 313 217 Z"/>
</svg>
