<?xml version="1.0" encoding="UTF-8"?><svg id="Github" xmlns="http://www.w3.org/2000/svg" viewBox="0 0 24 24"><polygon points="23 9 23 15 22 15 22 17 21 17 21 19 20 19 20 20 19 20 19 21 18 21 18 22 16 22 16 23 15 23 15 18 14 18 14 17 15 17 15 16 17 16 17 15 18 15 18 14 19 14 19 9 18 9 18 6 16 6 16 7 15 7 14 7 13 7 13 6 11 6 11 7 10 7 9 7 8 7 8 6 6 6 6 9 5 9 5 14 6 14 6 15 7 15 7 16 9 16 9 17 10 17 10 18 9 18 9 20 7 20 7 19 6 19 6 18 5 18 5 17 3 17 3 18 4 18 4 19 5 19 5 20 6 20 6 21 9 21 9 23 1 23 1 22 6 22 6 21 4 21 4 20 3 20 3 19 2 19 2 18 1 18 1 14 2 14 2 9 3 9 3 7 4 7 4 3 8 3 8 4 9 4 9 5 15 5 15 4 16 4 16 3 20 3 20 7 21 7 21 9 23 9"/></svg>
