<?xml version="1.0" encoding="utf-8"?>
<svg xmlns="http://www.w3.org/2000/svg" width="382.582" height="382.582" viewBox="0 0 382.582 382.582" role="img" aria-labelledby="title desc">
  <title id="title">Icon variation 1</title>
  <desc id="desc">Original flat vector circular badge icon with golden gradient, dark crescent accent, and colorful rounded dashboard/list elements.</desc>
  <defs>
    <linearGradient id="goldGradient1" x1="274" y1="329" x2="108" y2="52" gradientUnits="userSpaceOnUse">
      <stop offset="0" stop-color="#FFD272"/>
      <stop offset="1" stop-color="#FFF0A8"/>
    </linearGradient>
  </defs>
  <circle cx="191.291" cy="191.291" r="158.977" fill="url(#goldGradient1)"/>
  <path fill="#2D2D2D" d="M344.3 121.307a183.1 183.1 0 0 0-2.335-4.893 168.52 168.52 0 0 0-19.74-30.843C273.761 25.437 188.442 4.828 116.421 40.61c-10.355 5.145-19.937 11.195-28.714 18.04-61.779 48.137-83.302 134.642-47.1 207.503 41.357 83.219 142.335 117.171 225.554 75.813 28.834-14.323 51.75-35.81 67.661-61.228a167.782 167.782 0 0 0 13.856-27.415 168.624 168.624 0 0 0 9.813-35.736c5.044-31.682 1.094-65.11-13.191-96.28zm-82.585 211.714c-78.277 38.901-173.261 6.966-212.162-71.313C15.498 193.171 35.742 111.801 93.86 66.522c-28.247 45.101-33.083 103.415-7.657 154.567 38.893 78.278 133.875 110.204 212.153 71.313a158.733 158.733 0 0 0 27.005-16.976c-14.967 23.914-36.519 44.122-63.646 57.595z"/>
  <rect x="116" y="91" width="181" height="31" rx="14" fill="#74AEDE"/>
  <rect x="132" y="151" width="166" height="32" rx="14" fill="#94CE91"/>
  <rect x="107" y="151" width="19" height="32" rx="9" fill="#6EBA77"/>
  <rect x="138.035" y="214" width="137.965" height="31" rx="14" fill="#FFEEA6" style=""/>
  <rect x="286" y="214" width="48" height="31" rx="14" fill="#F3777A"/>
  <circle cx="123.889" cy="229.783" r="6" fill="#FFFFFF"/>
  <circle cx="310" cy="107" r="5" fill="#FFF5C8"/>
</svg>