<svg xmlns="http://www.w3.org/2000/svg" width="80" height="80" viewBox="0 0 80 80" role="img" aria-label="Oracle Database icon">
  <title>Oracle Database</title>
  <rect width="80" height="80" fill="#f80000" shape-rendering="crispEdges"/>
  <g transform="translate(14.521,20.159) scale(1,-1)" fill="#fff"><path d="M4.894,7.756 Q3.906,7.756 3.358,6.944 Q2.812,6.132 2.812,4.656 Q2.812,3.188 3.358,2.374 Q3.906,1.562 4.894,1.562 Q5.888,1.562 6.434,2.374 Q6.982,3.188 6.982,4.656 Q6.982,6.132 6.434,6.944 Q5.888,7.756 4.894,7.756 Z M4.894,9.500 Q6.918,9.500 8.064,8.212 Q9.212,6.926 9.212,4.656 Q9.212,2.394 8.064,1.106 Q6.918,-0.182 4.894,-0.182 Q2.876,-0.182 1.726,1.106 Q0.576,2.394 0.576,4.656 Q0.576,6.926 1.726,8.212 Q2.876,9.500 4.894,9.500 Z M13.925,5.194 Q14.600,5.194 14.896,5.474 Q15.194,5.756 15.194,6.400 Q15.194,7.038 14.896,7.312 Q14.600,7.588 13.925,7.588 L13.014,7.588 L13.014,5.194 L13.925,5.194 Z M13.014,3.532 L13.014,0.000 L10.844,0.000 L10.844,9.332 L14.149,9.332 Q15.813,9.332 16.584,8.712 Q17.355,8.094 17.355,6.756 Q17.355,5.832 16.956,5.238 Q16.556,4.644 15.744,4.362 Q16.188,4.250 16.540,3.852 Q16.893,3.456 17.250,2.650 L18.425,0.000 L16.119,0.000 L15.100,2.318 Q14.787,3.018 14.468,3.274 Q14.149,3.532 13.626,3.532 L13.014,3.532 Z M24.812,1.700 L21.424,1.700 L20.888,0.000 L18.712,0.000 L21.824,9.332 L24.406,9.332 L27.518,0.000 L25.338,0.000 L24.812,1.700 Z M21.962,3.432 L24.262,3.432 L23.118,7.144 L21.962,3.432 Z M35.287,0.512 Q34.687,0.168 34.041,-0.006 Q33.395,-0.182 32.695,-0.182 Q30.595,-0.182 29.369,1.122 Q28.145,2.426 28.145,4.656 Q28.145,6.894 29.369,8.196 Q30.595,9.500 32.695,9.500 Q33.395,9.500 34.041,9.324 Q34.687,9.150 35.287,8.806 L35.287,6.876 Q34.681,7.332 34.097,7.544 Q33.513,7.756 32.869,7.756 Q31.707,7.756 31.043,6.930 Q30.381,6.106 30.381,4.656 Q30.381,3.212 31.043,2.386 Q31.707,1.562 32.869,1.562 Q33.513,1.562 34.097,1.774 Q34.681,1.988 35.287,2.444 L35.287,0.512 Z M37.075,9.332 L39.245,9.332 L39.245,1.818 L43.045,1.818 L43.045,0.000 L37.075,0.000 L37.075,9.332 Z M44.412,9.332 L50.256,9.332 L50.256,7.512 L46.582,7.512 L46.582,5.776 L50.038,5.776 L50.038,3.956 L46.582,3.956 L46.582,1.818 L50.382,1.818 L50.382,0.000 L44.412,0.000 L44.412,9.332 Z"/></g>
  <g fill="none" stroke="#fff" stroke-width="2.7" stroke-linecap="round" stroke-linejoin="round">
    <ellipse cx="40" cy="30.6" rx="10.8" ry="3.6"/>
    <path d="M29.2 30.6v9.9c0 3.6 21.6 3.6 21.6 0V30.6"/>
    <path d="M29.2 34.6c0 3.6 21.6 3.6 21.6 0" opacity=".72"/>
  </g>
  <g transform="translate(21.849,70.113) scale(1,-1)" fill="#fff"><path d="M6.301,14.672 L6.301,3.551 L7.812,3.551 Q10.402,3.551 11.770,4.980 Q13.137,6.410 13.137,9.133 Q13.137,11.840 11.773,13.254 Q10.414,14.672 7.812,14.672 L6.301,14.672 Z M2.062,18.227 L6.531,18.227 Q10.266,18.227 12.090,17.633 Q13.918,17.043 15.223,15.625 Q16.383,14.391 16.941,12.777 Q17.504,11.168 17.504,9.133 Q17.504,7.066 16.941,5.449 Q16.383,3.832 15.223,2.602 Q13.902,1.184 12.059,0.590 Q10.219,0.000 6.531,0.000 L2.062,0.000 L2.062,18.227 Z M27.306,11.168 Q28.310,11.168 28.825,11.656 Q29.345,12.145 29.345,13.098 Q29.345,14.039 28.825,14.531 Q28.310,15.027 27.306,15.027 L24.978,15.027 L24.978,11.168 L27.306,11.168 Z M27.454,3.199 Q28.735,3.199 29.376,3.797 Q30.017,4.395 30.017,5.602 Q30.017,6.789 29.376,7.379 Q28.735,7.973 27.454,7.973 L24.978,7.973 L24.978,3.199 L27.454,3.199 Z M31.384,9.754 Q32.751,9.312 33.493,8.129 Q34.239,6.945 34.239,5.227 Q34.239,2.590 32.634,1.293 Q31.032,0.000 27.759,0.000 L20.739,0.000 L20.739,18.227 L27.087,18.227 Q30.505,18.227 32.036,17.078 Q33.571,15.930 33.571,13.402 Q33.571,12.074 33.013,11.141 Q32.458,10.207 31.384,9.754 Z"/></g>
</svg>
