<svg xmlns="http://www.w3.org/2000/svg" width="80" height="80" viewBox="0 0 80 80" role="img" aria-label="SQL icon">
  <title>SQL</title>
  <rect width="80" height="80" fill="#336791" shape-rendering="crispEdges"/>
  <g fill="none" stroke="#fff" stroke-width="3.1" stroke-linecap="round" stroke-linejoin="round">
    <ellipse cx="40" cy="19" rx="12" ry="4"/>
    <path d="M28 19v12.0c0 4.0 24.0 4.0 24.0 0V19"/>
    <path d="M28 24.0c0 4.0 24.0 4.0 24.0 0" opacity=".72"/>
  </g>
  <g transform="translate(12.649,67.549) scale(1,-1)" fill="#fff"><path d="M14.555,19.065 L14.555,14.896 Q13.103,15.622 11.711,15.989 Q10.323,16.360 9.083,16.360 Q7.450,16.360 6.666,15.858 Q5.881,15.360 5.881,14.306 Q5.881,13.513 6.408,13.070 Q6.936,12.631 8.332,12.315 L10.268,11.880 Q13.238,11.218 14.475,9.872 Q15.715,8.530 15.715,6.050 Q15.715,2.797 13.981,1.207 Q12.247,-0.384 8.674,-0.384 Q6.986,-0.384 5.290,-0.025 Q3.599,0.329 1.898,1.029 L1.898,5.311 Q3.599,4.312 5.181,3.801 Q6.763,3.295 8.239,3.295 Q9.728,3.295 10.526,3.848 Q11.323,4.404 11.323,5.434 Q11.323,6.353 10.783,6.855 Q10.243,7.358 8.623,7.754 L6.855,8.189 Q4.206,8.821 2.974,10.205 Q1.742,11.589 1.742,13.935 Q1.742,16.875 3.455,18.457 Q5.168,20.039 8.357,20.039 Q9.821,20.039 11.361,19.794 Q12.905,19.550 14.555,19.065 Z M28.307,-0.354 L27.949,-0.354 Q23.574,-0.354 21.140,2.333 Q18.710,5.025 18.710,9.821 Q18.710,14.610 21.135,17.322 Q23.561,20.039 27.818,20.039 Q32.129,20.039 34.526,17.348 Q36.926,14.660 36.926,9.821 Q36.926,6.501 35.652,4.101 Q34.382,1.700 31.982,0.489 L35.555,-3.940 L31.206,-3.940 L28.307,-0.354 Z M27.818,16.360 Q25.734,16.360 24.578,14.648 Q23.426,12.935 23.426,9.821 Q23.426,6.657 24.553,4.974 Q25.683,3.295 27.818,3.295 Q29.915,3.295 31.066,5.008 Q32.222,6.725 32.222,9.821 Q32.222,12.935 31.066,14.648 Q29.915,16.360 27.818,16.360 Z M40.368,19.685 L44.945,19.685 L44.945,3.835 L52.961,3.835 L52.961,0.000 L40.368,0.000 L40.368,19.685 Z"/></g>
</svg>
